<svg width="366" height="304" viewBox="0 0 366 304" fill="none" xmlns="http://www.w3.org/2000/svg">
<path d="M231.252 214.391L256.811 177.122L143.768 99.6684L118.209 136.938L231.252 214.391Z" fill="#0B821F"/>
<path d="M328.711 30.267L291.731 84.1879L179.166 5.86948L179.053 6.04067L170.211 0L0 248.191L37.2885 273.738L74.6064 219.318L186.829 298.116L186.947 297.945L195.789 304L366 55.8139L328.711 30.267ZM183.947 241.358L100.146 182.076L182.038 62.6469L266.177 121.449L183.947 241.358Z" fill="#69AA46"/>
<path d="M177.027 39.5456C182.371 39.5456 186.702 35.2162 186.702 29.8757C186.702 24.5351 182.371 20.2057 177.027 20.2057C171.684 20.2057 167.353 24.5351 167.353 29.8757C167.353 35.2162 171.684 39.5456 177.027 39.5456Z" fill="white"/>
<path d="M190.891 279.651C196.234 279.651 200.565 275.322 200.565 269.981C200.565 264.641 196.234 260.311 190.891 260.311C185.548 260.311 181.216 264.641 181.216 269.981C181.216 275.322 185.548 279.651 190.891 279.651Z" fill="white"/>
<path d="M321.317 67.9099L297.398 102.794L252.495 72.0283L244.054 84.3396L288.957 115.105L268.404 145.074L279.243 152.499L332.161 75.3397L321.317 67.9099Z" fill="white"/>
<path d="M122.171 215.077L76.9895 184.116L98.9369 152.117L88.0929 144.688L35.1794 221.847L46.0185 229.277L68.5433 196.427L113.73 227.389L122.171 215.077Z" fill="white"/>
<path d="M197.581 247.936L208.576 255.469L248.232 197.645L237.238 190.111L197.581 247.936Z" fill="white"/>
<path d="M117.615 102.609L128.61 110.143L168.266 52.318L157.272 44.7848L117.615 102.609Z" fill="white"/>
</svg>