<svg width="200" height="200" viewBox="0 0 884 112" fill="none" xmlns="http://www.w3.org/2000/svg">
<g clip-path="url(#clip0_49_71)">
<path d="M23.8309 105.564H0V2.9989H77.8322V22.0467H23.8309V105.564ZM22.0708 49.16H71.5066V68.2079H22.0708V49.16Z" fill="black"/>
<path d="M88.0906 105.564V2.9989H111.922V105.564H88.0906Z" fill="black"/>
<path d="M148.789 105.564H124.958V2.9989H202.79V22.0467H148.789V105.564ZM147.029 49.16H196.533V68.2079H147.029V49.16Z" fill="black"/>
<path d="M246.299 105.564V22.348H213.296V2.9989H303.05V22.348H270.047V105.564H246.299Z" fill="black"/>
<path d="M346.532 105.564V63.6616L352.032 78.0536L309.403 2.9989H334.706L366.691 60.5942H352.115L384.252 2.9989H407.629L365.082 78.0536L370.377 63.689V105.591L346.532 105.564Z" fill="black"/>
<path d="M500.188 105.564H476.344V2.9989H554.176V22.0467H500.188V105.564ZM498.415 49.16H547.919V68.2079H498.415V49.16Z" fill="black"/>
<path d="M564.434 105.564V2.9989H588.265V105.564H564.434Z" fill="black"/>
<path d="M625.146 105.564H601.302V2.9989H679.148V22.0467H625.146V105.564ZM623.372 49.16H672.877V68.2079H623.372V49.16Z" fill="black"/>
<path d="M722.643 105.564V22.348H689.64V2.9989H779.394V22.348H746.391V105.564H722.643Z" fill="black"/>
<path d="M822.889 105.564V63.6616L828.39 78.0262L785.761 2.9989H811.063L843.035 60.5942H828.486L860.609 2.9989H883.986L841.426 78.0536L846.734 63.689V105.591L822.889 105.564Z" fill="black"/>
<path d="M394.758 112L437.813 0H458.261L415.206 112H394.758Z" fill="#0B821F"/>
</g>
<defs>
<clipPath id="clip0_49_71">
<rect width="884" height="112" fill="white"/>
</clipPath>
</defs>
</svg>